<svg width="24" height="24" viewBox="0 0 24 24" fill="none" xmlns="http://www.w3.org/2000/svg">
<circle cx="12" cy="12" r="12" fill="#4F22AE"/>
<path d="M16.6667 8.66667V7.33334H15.3333V6.00001H16.6667V4.66667H18V6.00001H19.3333V7.33334H18V8.66667H16.6667ZM11.3333 15.6667C12.1667 15.6667 12.8751 15.3751 13.4587 14.792C14.0422 14.2089 14.3338 13.5004 14.3333 12.6667C14.3329 11.8329 14.0413 11.1247 13.4587 10.542C12.876 9.95934 12.1676 9.66756 11.3333 9.66667C10.4991 9.66578 9.79089 9.95756 9.20867 10.542C8.62644 11.1264 8.33467 11.8347 8.33333 12.6667C8.332 13.4987 8.62378 14.2071 9.20867 14.792C9.79356 15.3769 10.5018 15.6684 11.3333 15.6667ZM11.3333 14.3333C10.8667 14.3333 10.4722 14.1722 10.15 13.85C9.82778 13.5278 9.66667 13.1333 9.66667 12.6667C9.66667 12.2 9.82778 11.8056 10.15 11.4833C10.4722 11.1611 10.8667 11 11.3333 11C11.8 11 12.1944 11.1611 12.5167 11.4833C12.8389 11.8056 13 12.2 13 12.6667C13 13.1333 12.8389 13.5278 12.5167 13.85C12.1944 14.1722 11.8 14.3333 11.3333 14.3333ZM6 18C5.63333 18 5.31955 17.8696 5.05867 17.6087C4.79778 17.3478 4.66711 17.0338 4.66667 16.6667V8.66667C4.66667 8.30001 4.79733 7.98623 5.05867 7.72534C5.32 7.46445 5.63378 7.33378 6 7.33334H8.1L9.33333 6.00001H14V8.66667H15.3333V10H18V16.6667C18 17.0333 17.8696 17.3473 17.6087 17.6087C17.3478 17.87 17.0338 18.0004 16.6667 18H6Z" fill="white"/>
</svg>
