<svg width="71" height="64" viewBox="0 0 71 64" fill="none" xmlns="http://www.w3.org/2000/svg">
<g clip-path="url(#clip0_246_13365)">
<rect x="0.685059" width="69.4801" height="64" rx="20" fill="#EBC2FF"/>
<path d="M41.1926 12.0252L38.0368 20.5065L33.7962 12.6169L32.2182 20.7038L26.2023 13.11L27.0903 24.0391C30.8177 27.7664 51.5135 27.8211 55.2954 24.0391L56.0845 13.1103L50.0686 20.7041L48.4909 12.6172L44.2499 20.4082L41.1929 12.0256H41.1926V12.0252ZM41.2541 29.6747C38.6941 29.6747 36.3213 30.92 34.5467 33.1879C32.7725 35.4558 31.6725 38.724 31.6725 42.2903C31.6725 46.0744 32.9672 49.4184 34.9463 51.7122L36.3835 53.3093L34.3074 53.7884C28.8004 55.0431 26.171 57.6552 24.6461 61.6932C23.2265 65.4524 23.0035 70.6373 22.9695 76.7842H59.7784C59.772 70.6114 59.7306 65.2914 58.4211 61.4534C57.0156 57.334 54.4395 54.7066 48.5202 53.5489L46.444 53.1496L47.8013 51.4726C49.6571 49.1916 50.8355 45.941 50.8355 42.2903C50.8355 38.724 49.7352 35.4558 47.9608 33.1879C46.1865 30.92 43.8139 29.6749 41.2538 29.6749L41.2541 29.6747Z" fill="white"/>
</g>
<defs>
<clipPath id="clip0_246_13365">
<rect x="0.685059" width="69.4801" height="64" rx="20" fill="white"/>
</clipPath>
</defs>
</svg>
