<svg width="71" height="64" viewBox="0 0 71 64" fill="none" xmlns="http://www.w3.org/2000/svg">
<g clip-path="url(#clip0_246_13320)">
<rect x="0.685059" width="69.4801" height="64" rx="20" fill="#FFC2CD"/>
<rect x="9.37012" y="16" width="52.1101" height="66" rx="8" fill="white"/>
<path d="M21.6738 24L19.0551 24C18.5028 24 18.0551 24.4477 18.0551 25L18.0551 55C18.0551 55.5523 18.5028 56 19.0551 56L21.6738 56" stroke="#FFC2CC" stroke-width="3" stroke-linecap="round"/>
<rect x="25.6545" y="30.6667" width="6.51376" height="6" rx="3" fill="#FFD6DD"/>
<rect x="25.6545" y="42.6667" width="6.51376" height="6" rx="3" fill="#FFD6DD"/>
<rect x="38.6821" y="30.6667" width="6.51376" height="6" rx="3" fill="#FFD6DD"/>
<rect x="38.6821" y="42.6667" width="6.51376" height="6" rx="3" fill="#FFD6DD"/>
<path d="M49.1764 24L51.7952 24C52.3474 24 52.7952 24.4477 52.7952 25L52.7952 55C52.7952 55.5523 52.3474 56 51.7952 56L49.1764 56" stroke="#FFC2CC" stroke-width="3" stroke-linecap="round"/>
</g>
<defs>
<clipPath id="clip0_246_13320">
<rect x="0.685059" width="69.4801" height="64" rx="20" fill="white"/>
</clipPath>
</defs>
</svg>
