<svg width="71" height="64" viewBox="0 0 71 64" fill="none" xmlns="http://www.w3.org/2000/svg">
<g clip-path="url(#clip0_246_13348)">
<rect x="0.685059" width="69.4801" height="64" rx="20" fill="#FFC2E3"/>
<path d="M44.24 58.3867L48 54.6267L59.3334 65.88L55.4934 69.6667L44.24 58.3867ZM55.3334 16.3333C57.8087 16.3333 60.1827 17.3167 61.933 19.067C63.6834 20.8174 64.6667 23.1913 64.6667 25.6667C64.6667 28.142 63.6834 30.516 61.933 32.2663C60.1827 34.0167 57.8087 35 55.3334 35C52.858 35 50.484 34.0167 48.7337 32.2663C46.9834 30.516 46 28.142 46 25.6667C46 23.1913 46.9834 20.8174 48.7337 19.067C50.484 17.3167 52.858 16.3333 55.3334 16.3333ZM11.9734 29.96L19.52 22.4133C20.0287 21.9134 20.7134 21.6332 21.4267 21.6332C22.14 21.6332 22.8247 21.9134 23.3334 22.4133L45.92 45.0533C46.96 46.0933 46.96 47.7733 45.92 48.8133L38.3734 56.3333C38.1273 56.5865 37.833 56.7878 37.5078 56.9253C37.1826 57.0627 36.8331 57.1335 36.48 57.1335C36.127 57.1335 35.7775 57.0627 35.4523 56.9253C35.1271 56.7878 34.8327 56.5865 34.5867 56.3333L11.9734 33.7467C10.9334 32.68 10.9334 31 11.9734 29.96Z" fill="white"/>
</g>
<defs>
<clipPath id="clip0_246_13348">
<rect x="0.685059" width="69.4801" height="64" rx="20" fill="white"/>
</clipPath>
</defs>
</svg>
