<svg width="22" height="22" viewBox="0 0 22 22" fill="none" xmlns="http://www.w3.org/2000/svg">
<path d="M11 21.3022C16.4448 21.3022 20.8588 16.8883 20.8588 11.4435C20.8588 5.99863 16.4448 1.58472 11 1.58472C5.55516 1.58472 1.14125 5.99863 1.14125 11.4435C1.14125 16.8883 5.55516 21.3022 11 21.3022Z" fill="#D68F30"/>
<path d="M1.81157 14.0044V15.0116C1.91469 15.278 2.02985 15.541 2.15532 15.7953V14.0044H1.81157ZM2.93563 15.9002V17.1102C3.07313 17.3044 3.21579 17.4952 3.36532 17.6791V15.9002H2.93563ZM4.42407 17.4814V18.786C4.59079 18.9355 4.76266 19.0782 4.93969 19.2157V17.4814H4.42407ZM6.25626 18.6828V20.0853C6.42469 20.1782 6.59657 20.2658 6.77188 20.35V18.6828H6.25626ZM8.33423 19.4477V20.9327C8.50438 20.9808 8.67626 21.0238 8.84985 21.0633V19.4477H8.33423ZM10.7663 19.7124V21.2953C10.8436 21.2971 10.9209 21.3005 11 21.3005C11.0945 21.3005 11.1891 21.2953 11.2819 21.2936V19.7124H10.7663ZM13.1983 19.4357V21.0513C13.3719 21.0117 13.5438 20.9671 13.7139 20.9189V19.4357H13.1983ZM15.2711 18.6605V20.3294C15.4464 20.2452 15.6183 20.1541 15.7867 20.0596V18.6605H15.2711ZM17.0981 17.4488V19.1847C17.275 19.0465 17.447 18.902 17.6138 18.7516V17.4488H17.0981ZM19.0936 15.8624H18.6639V17.6413C18.8134 17.4557 18.9578 17.2649 19.0936 17.0689V15.8624ZM20.2108 13.9597H19.867V15.7541C19.9925 15.4946 20.1077 15.2282 20.2108 14.9583V13.9597Z" fill="#BC6F00"/>
<path d="M11 20.4153C16.4448 20.4153 20.8588 16.0014 20.8588 10.5566C20.8588 5.11173 16.4448 0.697815 11 0.697815C5.55516 0.697815 1.14125 5.11173 1.14125 10.5566C1.14125 16.0014 5.55516 20.4153 11 20.4153Z" fill="#FFF176"/>
<path d="M11 19.537C15.9598 19.537 19.9805 15.5164 19.9805 10.5566C19.9805 5.5968 15.9598 1.57611 11 1.57611C6.04022 1.57611 2.01953 5.5968 2.01953 10.5566C2.01953 15.5164 6.04022 19.537 11 19.537Z" fill="#F2BC1A"/>
<path d="M2.00235 10.9003C1.93876 9.7178 2.14329 8.51812 2.55579 7.39406C2.98548 6.27343 3.64376 5.23702 4.47391 4.35702C6.1411 2.59359 8.5611 1.57093 11 1.5589C13.4389 1.57265 15.8606 2.59359 17.5244 4.35874C18.3563 5.23702 19.0128 6.27515 19.4425 7.39406C19.8567 8.51984 20.0613 9.7178 19.9959 10.9003H19.9616C19.9582 9.72066 19.7247 8.55301 19.2741 7.4628C18.8227 6.37383 18.1636 5.38316 17.3336 4.54609C16.5031 3.70984 15.5161 3.04523 14.4289 2.59015C13.3421 2.13637 12.176 1.90272 10.9983 1.90272C9.82054 1.90272 8.65449 2.13637 7.56766 2.59015C6.48048 3.04523 5.49349 3.70984 4.66298 4.54609C3.83241 5.38271 3.17325 6.37349 2.72251 7.4628C2.27192 8.55301 2.03839 9.72066 2.03501 10.9003H2.00235Z" fill="#E08F00"/>
<path d="M11 0.699524C5.555 0.699524 1.14125 5.11327 1.14125 10.5583C1.14125 16.0033 5.555 20.417 11 20.417C16.445 20.417 20.8588 16.0033 20.8588 10.5583C20.8588 5.11327 16.445 0.699524 11 0.699524ZM11 19.5387C6.03969 19.5387 2.01953 15.5186 2.01953 10.5583C2.01953 5.59624 6.03969 1.57609 11 1.57609C15.9603 1.57609 19.9805 5.59624 19.9805 10.5566C19.9805 15.5169 15.9603 19.5387 11 19.5387Z" fill="#FFF176"/>
<path d="M6.52953 3.66956L6.74781 4.34502L7.45937 4.07346V4.34502L6.88359 4.76268L7.10359 5.16487V5.43815L6.52953 5.02049L5.95374 5.43815V5.16487L6.17374 4.76268L5.59968 4.34502V4.07346L6.30953 4.34502L6.52953 3.66956ZM3.78296 7.54706L4.00296 8.22252L4.71281 7.95096V8.22252L4.13875 8.64018L4.35875 9.04409V9.31565L3.78296 8.89799L3.2089 9.31565V9.04409L3.4289 8.64018L2.85312 8.22252V7.95096L3.56468 8.22252L3.78296 7.54706ZM3.70218 12.3269L3.92218 13.0024L4.63203 12.7308V13.0024L4.05796 13.42L4.27796 13.8239V14.0955L3.70218 13.6778L3.12812 14.0955V13.8239L3.34812 13.42L2.77234 13.0024V12.7308L3.4839 13.0024L3.70218 12.3269ZM6.63437 16.1219L6.85437 16.7974L7.56421 16.5258V16.7974L6.99015 17.215L7.21015 17.6172V17.8905L6.63437 17.4728L6.06031 17.8905V17.6172L6.28031 17.215L5.70453 16.7974V16.5258L6.41609 16.7974L6.63437 16.1219ZM15.4705 3.66956L15.2522 4.34502L14.5406 4.07346V4.34502L15.1164 4.76268L14.8964 5.16487V5.43815L15.4705 5.02049L16.0462 5.43815V5.16487L15.8262 4.76268L16.4003 4.34502V4.07346L15.6905 4.34502L15.4705 3.66956ZM18.217 7.54706L17.997 8.22252L17.2872 7.95096V8.22252L17.8612 8.64018L17.6412 9.04409V9.31565L18.217 8.89799L18.7911 9.31565V9.04409L18.5711 8.64018L19.1469 8.22252V7.95096L18.4353 8.22252L18.217 7.54706ZM18.2978 12.3269L18.0778 13.0024L17.368 12.7308V13.0024L17.942 13.42L17.722 13.8239V14.0955L18.2978 13.6778L18.8719 14.0955V13.8239L18.6519 13.42L19.2277 13.0024V12.7308L18.5161 13.0024L18.2978 12.3269ZM15.3656 16.1219L15.1456 16.7974L14.4358 16.5258V16.7974L15.0098 17.215L14.7898 17.6172V17.8905L15.3656 17.4728L15.9397 17.8905V17.6172L15.7197 17.215L16.2955 16.7974V16.5258L15.5839 16.7974L15.3656 16.1219Z" fill="#D38200"/>
<path d="M15.3656 15.8486L15.5839 16.5241H16.2955L15.7197 16.9417L15.9397 17.6172L15.3656 17.1995L14.7898 17.6172L15.0098 16.9417L14.4358 16.5241H15.1456L15.3656 15.8486ZM18.2978 12.0553L18.5161 12.7308H19.2277L18.6519 13.1484L18.8719 13.8239L18.2978 13.4062L17.722 13.8239L17.942 13.1484L17.368 12.7308H18.0778L18.2978 12.0553ZM18.217 7.27546L18.4353 7.95093H19.1469L18.5711 8.36858L18.7911 9.04405L18.217 8.6264L17.6412 9.04405L17.8612 8.36858L17.2872 7.95093H17.997L18.217 7.27546ZM15.4705 3.39624L15.6905 4.07171H16.4003L15.8262 4.48937L16.0462 5.16483L15.4705 4.74718L14.8964 5.16483L15.1164 4.48937L14.5406 4.07171H15.2522L15.4705 3.39624Z" fill="#FFF176"/>
<path d="M11.0086 17.6172L11.2286 18.2927L11.9384 18.0211V18.2927L11.3644 18.7103L11.5844 19.1142V19.3858L11.0086 18.9681L10.4345 19.3858V19.1142L10.6545 18.7103L10.0788 18.2927V18.0211L10.7903 18.2927L11.0086 17.6172Z" fill="#D38200"/>
<path d="M11.0086 17.2562L11.2286 17.9317H11.9384L11.3644 18.3494L11.5844 19.0248L11.0086 18.6072L10.4345 19.0248L10.6545 18.3494L10.0788 17.9317H10.7903L11.0086 17.2562Z" fill="#FFF176"/>
<path d="M11.0086 2.21545L11.2286 2.89092L11.9384 2.61936V2.89092L11.3644 3.30858L11.5844 3.71249V3.98405L11.0086 3.56639L10.4345 3.98405V3.71249L10.6545 3.30858L10.0788 2.89092V2.61936L10.7903 2.89092L11.0086 2.21545Z" fill="#D38200"/>
<path d="M11.0086 1.94391L11.2286 2.61938H11.9384L11.3644 3.03703L11.5844 3.7125L11.0086 3.29485L10.4345 3.7125L10.6545 3.03703L10.0787 2.61938H10.7903L11.0086 1.94391ZM6.63437 15.8486L6.41609 16.5241H5.70453L6.28031 16.9417L6.06031 17.6172L6.63437 17.1995L7.21015 17.6172L6.99015 16.9417L7.56421 16.5241H6.85437L6.63437 15.8486ZM3.70218 12.0553L3.4839 12.7308H2.77234L3.34812 13.1484L3.12812 13.8239L3.70218 13.4063L4.27796 13.8239L4.05796 13.1484L4.63203 12.7308H3.92218L3.70218 12.0553ZM3.78296 7.27547L3.56468 7.95094H2.85312L3.4289 8.3686L3.2089 9.04406L3.78296 8.62641L4.35875 9.04406L4.13875 8.3686L4.71281 7.95094H4.00296L3.78296 7.27547ZM6.52953 3.39625L6.30953 4.07172H5.59968L6.17374 4.48938L5.95375 5.16485L6.52953 4.74719L7.10359 5.16485L6.88359 4.48938L7.45937 4.07172H6.74781L6.52953 3.39625Z" fill="#FFF176"/>
<path d="M16.3659 8.28437C16.3659 8.22421 5.64437 8.28437 5.64437 8.28437L5.54812 8.57312V9.0664C5.54812 9.15577 5.62031 9.22796 5.70969 9.22796H16.2903C16.3797 9.22796 16.4519 9.15577 16.4519 9.0664V8.58687L16.3659 8.28437ZM16.3814 14.6953H5.68906L4.97406 15.0545L4.98265 15.5169C4.98437 15.5667 5.02562 15.608 5.07719 15.608H16.9245C16.9744 15.608 17.0173 15.5684 17.0191 15.5169L17.0277 15.0631L16.3814 14.6953Z" fill="#D38200"/>
<path d="M7.41297 13.2894H6.79766C6.69625 13.2894 6.61375 12.9697 6.61375 12.8683L7.59516 12.8374C7.59516 12.9388 7.51266 13.2894 7.41297 13.2894ZM7.62266 9.97049H6.58625C6.50891 9.97049 6.44187 9.91893 6.41953 9.84502L6.33875 9.16956H7.85641L7.78766 9.84502C7.76703 9.91893 7.7 9.97049 7.62266 9.97049ZM6.58625 13.4939H7.62266C7.7 13.4939 7.85297 13.5421 7.87359 13.616C7.87359 13.616 7.86844 13.9374 7.86844 14.0646C7.86844 14.1917 7.81687 14.2846 7.70172 14.2846H6.50719C6.39203 14.2846 6.34047 14.1814 6.34047 14.0646C6.34047 13.9477 6.33531 13.6194 6.33531 13.6194C6.35766 13.5455 6.50891 13.4939 6.58625 13.4939ZM15.4052 13.2894H14.7898C14.6884 13.2894 14.6059 12.9697 14.6059 12.8683L15.5873 12.8374C15.5873 12.9388 15.5066 13.2894 15.4052 13.2894ZM15.6148 9.97049H14.5784C14.5011 9.97049 14.4341 9.91893 14.4117 9.84502L14.3309 9.16956H15.8486L15.7798 9.84502C15.7592 9.91893 15.6922 9.97049 15.6148 9.97049ZM14.5784 13.4939H15.6148C15.6922 13.4939 15.8452 13.5421 15.8658 13.616C15.8658 13.616 15.8606 13.9374 15.8606 14.0646C15.8606 14.1917 15.8091 14.2846 15.6939 14.2846H14.4994C14.3842 14.2846 14.3327 14.1814 14.3327 14.0646C14.3327 13.9477 14.3275 13.6194 14.3275 13.6194C14.3498 13.5455 14.5011 13.4939 14.5784 13.4939ZM12.7411 13.2894H12.1258C12.0244 13.2894 11.9419 12.9697 11.9419 12.8683L12.9233 12.8374C12.9233 12.9388 12.8425 13.2894 12.7411 13.2894ZM12.9508 9.97049H11.9144C11.837 9.97049 11.77 9.91893 11.7477 9.84502L11.6669 9.16956H13.1845L13.1158 9.84502C13.0952 9.91893 13.0281 9.97049 12.9508 9.97049ZM11.9144 13.4939H12.9508C13.0281 13.4939 13.1811 13.5421 13.2017 13.616C13.2017 13.616 13.1966 13.9374 13.1966 14.0646C13.1966 14.1917 13.145 14.2846 13.0298 14.2846H11.8353C11.7202 14.2846 11.6686 14.1814 11.6686 14.0646C11.6686 13.9477 11.6634 13.6194 11.6634 13.6194C11.6858 13.5455 11.837 13.4939 11.9144 13.4939ZM10.077 13.2894H9.46172C9.36031 13.2894 9.27781 12.9697 9.27781 12.8683L10.2592 12.8374C10.2592 12.9388 10.1784 13.2894 10.077 13.2894ZM10.2867 9.97049H9.25031C9.17297 9.97049 9.10594 9.91893 9.08359 9.84502L9.00281 9.16956H10.5205L10.4517 9.84502C10.4311 9.91893 10.3641 9.97049 10.2867 9.97049ZM9.25031 13.4939H10.2867C10.3641 13.4939 10.517 13.5421 10.5377 13.616C10.5377 13.616 10.5325 13.9374 10.5325 14.0646C10.5325 14.1917 10.4809 14.2846 10.3658 14.2846H9.17125C9.05609 14.2846 9.00453 14.1814 9.00453 14.0646C9.00453 13.9477 8.99937 13.6194 8.99937 13.6194C9.02172 13.5455 9.17297 13.4939 9.25031 13.4939Z" fill="#D38200"/>
<path d="M16.4433 7.82377C16.4433 7.76361 16.4123 7.70689 16.3659 7.67939L11.0069 4.63721L5.64094 7.67596C5.58938 7.70689 5.55672 7.76361 5.55672 7.82377L5.54813 8.57486C5.54813 8.66939 5.62547 8.74674 5.72 8.74674H16.2783C16.3728 8.74674 16.4502 8.66939 16.4502 8.57486L16.4433 7.82377Z" fill="#FFF176"/>
<path d="M15.0975 7.61923L11 5.29376L6.9025 7.61923H15.0975Z" fill="#F2BC1A"/>
<path d="M13.5902 7.33563L11 5.86438L8.40984 7.33563H13.5902ZM16.0514 14.0972H5.94859C5.84891 14.0972 5.75437 14.1402 5.68734 14.2141L4.99297 14.9892C4.94484 15.0425 4.98266 15.1267 5.05484 15.1267H16.9452C17.0156 15.1267 17.0534 15.0425 17.007 14.9892L16.3109 14.2141C16.2456 14.1402 16.1494 14.0972 16.0514 14.0972ZM15.4052 12.9783H14.7898C14.6884 12.9783 14.6059 12.8958 14.6059 12.7944V10.0478C14.6059 9.94641 14.6884 9.86391 14.7898 9.86391H15.4052C15.5066 9.86391 15.5891 9.94641 15.5891 10.0478V12.7961C15.5891 12.8975 15.5066 12.9783 15.4052 12.9783ZM15.6166 9.65938H14.5802C14.5028 9.65938 14.4358 9.60782 14.4134 9.53391L14.3344 9.26063C14.3017 9.15063 14.3859 9.04063 14.5011 9.04063H15.6956C15.8108 9.04063 15.8933 9.15063 15.8623 9.26063L15.7833 9.53391C15.7609 9.60782 15.6922 9.65938 15.6166 9.65938ZM14.5784 13.1845H15.6148C15.6922 13.1845 15.7592 13.2361 15.7816 13.31L15.8606 13.5833C15.8933 13.6933 15.8091 13.8033 15.6939 13.8033H14.4994C14.3842 13.8033 14.3017 13.6933 14.3327 13.5833L14.4117 13.31C14.4341 13.2344 14.5028 13.1845 14.5784 13.1845ZM7.41297 12.9783H6.79766C6.69625 12.9783 6.61375 12.8958 6.61375 12.7944V10.0478C6.61375 9.94641 6.69625 9.86391 6.79766 9.86391H7.41297C7.51437 9.86391 7.59687 9.94641 7.59687 10.0478V12.7961C7.59516 12.8975 7.51266 12.9783 7.41297 12.9783ZM7.62266 9.65938H6.58625C6.50891 9.65938 6.44187 9.60782 6.41953 9.53391L6.34047 9.26063C6.30781 9.15063 6.39203 9.04063 6.50719 9.04063H7.70172C7.81687 9.04063 7.89937 9.15063 7.86844 9.26063L7.78937 9.53391C7.76703 9.60782 7.7 9.65938 7.62266 9.65938ZM6.58625 13.1845H7.62266C7.7 13.1845 7.76703 13.2361 7.78937 13.31L7.86844 13.5833C7.90109 13.6933 7.81687 13.8033 7.70172 13.8033H6.50719C6.39203 13.8033 6.30953 13.6933 6.34047 13.5833L6.41953 13.31C6.44187 13.2344 6.50891 13.1845 6.58625 13.1845ZM10.077 12.9783H9.46172C9.36031 12.9783 9.27781 12.8958 9.27781 12.7944V10.0478C9.27781 9.94641 9.36031 9.86391 9.46172 9.86391H10.077C10.1784 9.86391 10.2609 9.94641 10.2609 10.0478V12.7961C10.2605 12.8446 10.2409 12.8909 10.2065 12.925C10.172 12.9591 10.1255 12.9783 10.077 12.9783ZM10.2867 9.65938H9.25031C9.17297 9.65938 9.10594 9.60782 9.08359 9.53391L9.00453 9.26063C8.97187 9.15063 9.05609 9.04063 9.17125 9.04063H10.3658C10.4809 9.04063 10.5634 9.15063 10.5325 9.26063L10.4534 9.53391C10.4311 9.60782 10.3641 9.65938 10.2867 9.65938ZM9.25031 13.1845H10.2867C10.3641 13.1845 10.4311 13.2361 10.4534 13.31L10.5325 13.5833C10.5652 13.6933 10.4809 13.8033 10.3658 13.8033H9.17125C9.05609 13.8033 8.97359 13.6933 9.00453 13.5833L9.08359 13.31C9.10594 13.2344 9.17297 13.1845 9.25031 13.1845ZM12.7411 12.9783H12.1258C12.0244 12.9783 11.9419 12.8958 11.9419 12.7944V10.0478C11.9419 9.94641 12.0244 9.86391 12.1258 9.86391H12.7411C12.8425 9.86391 12.925 9.94641 12.925 10.0478V12.7961C12.9245 12.8446 12.905 12.8909 12.8705 12.925C12.8361 12.9591 12.7896 12.9783 12.7411 12.9783ZM12.9508 9.65938H11.9144C11.837 9.65938 11.77 9.60782 11.7477 9.53391L11.6686 9.26063C11.6359 9.15063 11.7202 9.04063 11.8353 9.04063H13.0298C13.145 9.04063 13.2275 9.15063 13.1966 9.26063L13.1175 9.53391C13.0952 9.60782 13.0281 9.65938 12.9508 9.65938ZM11.9144 13.1845H12.9508C13.0281 13.1845 13.0952 13.2361 13.1175 13.31L13.1966 13.5833C13.2292 13.6933 13.145 13.8033 13.0298 13.8033H11.8353C11.7202 13.8033 11.6377 13.6933 11.6686 13.5833L11.7477 13.31C11.77 13.2344 11.8387 13.1845 11.9144 13.1845Z" fill="#FFF176"/>
</svg>
