<svg width="40" height="40" viewBox="0 0 40 40" fill="none" xmlns="http://www.w3.org/2000/svg">
<path d="M17.9988 1.16429C19.24 0.444284 20.7718 0.444285 22.013 1.16429L28.6559 5.01776L35.3145 8.84395C36.5587 9.55886 37.3246 10.8854 37.3216 12.3203L37.3059 20L37.3216 27.6797C37.3246 29.1146 36.5587 30.4411 35.3145 31.1561L28.6559 34.9822L22.013 38.8357C20.7718 39.5557 19.24 39.5557 17.9988 38.8357L11.3559 34.9822L4.69721 31.1561C3.45306 30.4411 2.68717 29.1146 2.69011 27.6797L2.70586 20L2.69011 12.3203C2.68717 10.8854 3.45306 9.55886 4.69721 8.84395L11.3559 5.01776L17.9988 1.16429Z" fill="#F6B191"/>
<g clip-path="url(#clip0_1_8)">
<path d="M20.0059 15L23.3392 20L27.5059 16.6667L25.8392 25H14.1725L12.5059 16.6667L16.6725 20L20.0059 15Z" fill="black" stroke="black" stroke-width="1.5" stroke-linecap="round" stroke-linejoin="round"/>
</g>
<defs>
<clipPath id="clip0_1_8">
<rect width="20" height="20" fill="white" transform="translate(10.0059 10)"/>
</clipPath>
</defs>
</svg>
