<svg width="46" height="40" viewBox="0 0 46 40" fill="none" xmlns="http://www.w3.org/2000/svg">
<path d="M21.3204 0.968109C22.481 0.361613 23.8649 0.361613 25.0255 0.968109L32.775 5.01776L40.2331 8.87841C41.5636 9.56713 42.3977 10.9416 42.3942 12.4398L42.377 20L42.3942 27.5602C42.3977 29.0584 41.5636 30.4329 40.2331 31.1216L32.775 34.9822L25.0255 39.0319C23.8649 39.6384 22.481 39.6384 21.3204 39.0319L13.5709 34.9822L6.1128 31.1216C4.78231 30.4329 3.94823 29.0584 3.95164 27.5602L3.96885 20L3.95164 12.4398C3.94823 10.9416 4.78231 9.56713 6.1128 8.87841L13.5709 5.01776L21.3204 0.968109Z" fill="#FFD54B"/>
<g clip-path="url(#clip0_42_2485)">
<path d="M23.1729 15L26.8732 20L31.4984 16.6667L29.6483 25H16.6976L14.8475 16.6667L19.4727 20L23.1729 15Z" fill="black" stroke="black" stroke-width="1.5" stroke-linecap="round" stroke-linejoin="round"/>
</g>
<defs>
<clipPath id="clip0_42_2485">
<rect width="22.2013" height="20" fill="white" transform="translate(12.0723 10)"/>
</clipPath>
</defs>
</svg>
