<svg width="16" height="16" viewBox="0 0 16 16" fill="none" xmlns="http://www.w3.org/2000/svg">
<path d="M0.941079 15.9999C0.720819 16 0.507511 15.9344 0.338303 15.8145C0.169094 15.6946 0.0547066 15.5281 0.0150604 15.344L1.90735e-06 15.2L1.90735e-06 0.801877C-0.000431061 0.60199 0.0872002 0.409208 0.245639 0.261495C0.404078 0.113781 0.62184 0.0218401 0.856047 0.00377941C1.09025 -0.0142803 1.32393 0.0428467 1.51106 0.163912C1.69818 0.284977 1.8252 0.461205 1.8671 0.657895L1.88216 0.801877L1.88216 15.2C1.88216 15.4122 1.78301 15.6156 1.60652 15.7656C1.43004 15.9156 1.19067 15.9999 0.941079 15.9999ZM15.7235 15.7663C15.5676 15.8986 15.362 15.9802 15.1426 15.9968C14.9231 16.0135 14.7038 15.9642 14.5227 15.8575L14.391 15.7663L5.92126 8.56727C5.76565 8.43471 5.66969 8.25996 5.65009 8.07345C5.63048 7.88694 5.68848 7.7005 5.81398 7.5466L5.92126 7.43461L14.391 0.23555C14.5569 0.0938339 14.7794 0.0101023 15.0144 0.0008564C15.2494 -0.00839043 15.4799 0.0575209 15.6606 0.185598C15.8413 0.313675 15.959 0.494629 15.9905 0.692799C16.022 0.890968 15.965 1.09198 15.8308 1.25622L15.7235 1.3682L7.91823 8.00094L15.7235 14.6337C15.8112 14.708 15.8807 14.7963 15.9281 14.8934C15.9756 14.9906 16 15.0948 16 15.2C16 15.3052 15.9756 15.4094 15.9281 15.5066C15.8807 15.6038 15.8112 15.692 15.7235 15.7663Z" fill="white"/>
</svg>
