<svg width="26" height="26" viewBox="0 0 26 26" fill="none" xmlns="http://www.w3.org/2000/svg">
<path d="M24.9885 13.2245C24.9885 12.2413 24.9069 11.5237 24.7301 10.7796H13.239V15.2176H19.984C19.8481 16.3205 19.1138 17.9815 17.4819 19.0976L17.459 19.2461L21.0923 21.9963L21.344 22.0209C23.6558 19.9347 24.9885 16.8653 24.9885 13.2245Z" fill="#4285F4"/>
<path d="M13.239 24.9176C16.5435 24.9176 19.3177 23.8545 21.344 22.0209L17.4819 19.0976C16.4484 19.8018 15.0612 20.2934 13.239 20.2934C10.0025 20.2934 7.25551 18.2074 6.27629 15.324L6.13276 15.3359L2.35483 18.1927L2.30542 18.3269C4.31804 22.2334 8.45214 24.9176 13.239 24.9176Z" fill="#34A853"/>
<path d="M6.27634 15.324C6.01797 14.5799 5.86844 13.7826 5.86844 12.9588C5.86844 12.1349 6.01797 11.3377 6.26275 10.5936L6.25591 10.4351L2.43062 7.5324L2.30547 7.59056C1.47597 9.21166 1 11.0321 1 12.9588C1 14.8855 1.47597 16.7058 2.30547 18.3269L6.27634 15.324Z" fill="#FBBC05"/>
<path d="M13.239 5.62403C15.5372 5.62403 17.0875 6.59402 17.9714 7.40461L21.4255 4.10928C19.3042 2.1826 16.5435 1 13.239 1C8.45214 1 4.31804 3.68406 2.30542 7.59056L6.2627 10.5936C7.25551 7.7102 10.0025 5.62403 13.239 5.62403Z" fill="#EB4335"/>
</svg>
