<svg width="22" height="24" viewBox="0 0 22 24" fill="none" xmlns="http://www.w3.org/2000/svg">
<g clip-path="url(#clip0_17_122)">
<path d="M0 21.3391V2.6596C0 0.616399 2.26535 -0.663489 4.08043 0.360448L20.6404 9.69901C22.4532 10.7229 22.4532 13.2781 20.6404 14.2997L4.08043 23.6406C2.26769 24.6622 0 23.3846 0 21.3391Z" fill="#1A8039"/>
<path fill-rule="evenodd" clip-rule="evenodd" d="M11.8579 10.6066C11.491 8.5192 9.63778 7.00195 7.47011 7.00195H0V16.9968H5.31195L9.17327 20.769L13.2656 18.4605L11.8579 10.6066ZM5.30243 8.35396C6.00753 8.35396 6.58157 8.9148 6.58157 9.61058C6.58157 10.2994 6.00748 10.8602 5.30243 10.8602C4.59022 10.8602 4.01613 10.2994 4.01613 9.61058C4.01613 8.9148 4.59022 8.35396 5.30243 8.35396ZM2.85369 13.2548C2.1486 13.2548 1.57455 12.6939 1.57455 11.9982C1.57455 11.3093 2.14864 10.7485 2.85369 10.7485C3.56591 10.7485 4.14 11.3094 4.14 11.9982C4.14 12.694 3.56591 13.2548 2.85369 13.2548ZM5.30243 15.6401C4.59022 15.6401 4.01613 15.0862 4.01613 14.3904C4.01613 13.7016 4.59022 13.1408 5.30243 13.1408C6.00753 13.1408 6.58157 13.7017 6.58157 14.3904C6.58162 15.0862 6.00753 15.6401 5.30243 15.6401ZM7.77738 13.2548C7.06516 13.2548 6.49107 12.6939 6.49107 11.9982C6.49107 11.3093 7.06516 10.7485 7.77738 10.7485C8.48247 10.7485 9.05652 11.3094 9.05652 11.9982C9.05417 12.694 8.48008 13.2548 7.77738 13.2548Z" fill="#94FED6"/>
</g>
<defs>
<clipPath id="clip0_17_122">
<rect width="22" height="24" fill="white"/>
</clipPath>
</defs>
</svg>
