<svg width="67" height="67" viewBox="0 0 67 67" fill="none" xmlns="http://www.w3.org/2000/svg">
<circle cx="33.5" cy="33.5" r="33.5" fill="#BF83FF"/>
<mask id="mask0_23_1592" style="mask-type:alpha" maskUnits="userSpaceOnUse" x="0" y="0" width="67" height="67">
<circle cx="33.5" cy="33.5" r="33.5" fill="#C4C4C4"/>
</mask>
<g mask="url(#mask0_23_1592)">
<path fill-rule="evenodd" clip-rule="evenodd" d="M33.5 17.3437C26.7722 17.3437 21.3182 22.7977 21.3182 29.5255V30.7654C20.0836 30.9725 19.1429 32.0462 19.1429 33.3397V36.323C19.1429 37.6426 20.1221 38.7335 21.3935 38.9088C21.8689 43.1809 24.5536 46.7861 28.2792 48.5559V52.5605C19.0653 53.0565 11.7467 60.6849 11.7467 70.0225H55.2532C55.2532 60.6849 47.9347 53.0565 38.7208 52.5605V48.5559C42.4463 46.7861 45.1311 43.1809 45.6065 38.9088C46.8779 38.7335 47.8571 37.6426 47.8571 36.323V33.3397C47.8571 32.0462 46.9164 30.9725 45.6818 30.7654V29.5255C45.6818 22.7977 40.2278 17.3437 33.5 17.3437Z" fill="#D0C6AC"/>
<mask id="mask1_23_1592" style="mask-type:luminance" maskUnits="userSpaceOnUse" x="11" y="17" width="45" height="54">
<path fill-rule="evenodd" clip-rule="evenodd" d="M33.5 17.3437C26.7722 17.3437 21.3182 22.7977 21.3182 29.5255V30.7654C20.0836 30.9725 19.1429 32.0462 19.1429 33.3397V36.323C19.1429 37.6426 20.1221 38.7335 21.3935 38.9088C21.8689 43.1809 24.5536 46.7861 28.2792 48.5559V52.5605C19.0653 53.0565 11.7467 60.6849 11.7467 70.0225H55.2532C55.2532 60.6849 47.9347 53.0565 38.7208 52.5605V48.5559C42.4463 46.7861 45.1311 43.1809 45.6065 38.9088C46.8779 38.7335 47.8571 37.6426 47.8571 36.323V33.3397C47.8571 32.0462 46.9164 30.9725 45.6818 30.7654V29.5255C45.6818 22.7977 40.2278 17.3437 33.5 17.3437Z" fill="white"/>
</mask>
<g mask="url(#mask1_23_1592)">
<rect width="57.4286" height="52.6788" transform="translate(4.78571 17.3437)" fill="#FFCCD7"/>
<rect x="4.78571" y="17.3437" width="57.4286" height="52.6788" fill="#FFCCD7"/>
<path fill-rule="evenodd" clip-rule="evenodd" d="M21.3182 37.5464V39.2736C21.3182 46.0014 26.7722 51.4554 33.5 51.4554C40.2278 51.4554 45.6818 46.0014 45.6818 39.2736V37.5464C45.6818 44.2742 40.2278 49.7282 33.5 49.7282C26.7722 49.7282 21.3182 44.2742 21.3182 37.5464Z" fill="black" fill-opacity="0.1"/>
</g>
<path fill-rule="evenodd" clip-rule="evenodd" d="M33.6088 60.4858C39.5557 60.4858 44.3766 57.6362 44.3766 54.1211C44.3766 54.0238 44.3729 53.9269 44.3656 53.8307C50.7517 56.432 55.2532 62.7015 55.2532 70.0225H11.7467C11.7467 62.6157 16.3545 56.2851 22.8598 53.7407C22.8473 53.8665 22.8409 53.9934 22.8409 54.1211C22.8409 57.6362 27.6618 60.4858 33.6088 60.4858Z" fill="#6223A9"/>
<mask id="mask2_23_1592" style="mask-type:luminance" maskUnits="userSpaceOnUse" x="11" y="53" width="45" height="18">
<path fill-rule="evenodd" clip-rule="evenodd" d="M33.6088 60.4858C39.5557 60.4858 44.3766 57.6362 44.3766 54.1211C44.3766 54.0238 44.3729 53.9269 44.3656 53.8307C50.7517 56.432 55.2532 62.7015 55.2532 70.0225H11.7467C11.7467 62.6157 16.3545 56.2851 22.8598 53.7407C22.8473 53.8665 22.8409 53.9934 22.8409 54.1211C22.8409 57.6362 27.6618 60.4858 33.6088 60.4858Z" fill="white"/>
</mask>
<g mask="url(#mask2_23_1592)">
<rect x="4.78571" y="46.2739" width="57.4286" height="23.7487" fill="#6223A9"/>
</g>
<path fill-rule="evenodd" clip-rule="evenodd" d="M30.4545 41.7401C30.4545 43.4094 31.818 44.7626 33.5 44.7626C35.182 44.7626 36.5455 43.4094 36.5455 41.7401" fill="#0C092A"/>
<g opacity="0.3">
<path fill-rule="evenodd" clip-rule="evenodd" d="M30.8896 37.638C30.8896 38.5919 32.0583 39.3652 33.5 39.3652C34.9417 39.3652 36.1104 38.5919 36.1104 37.638" fill="#0C092A"/>
</g>
<ellipse cx="27.8442" cy="33.7519" rx="1.30519" ry="1.29538" fill="#0C092A"/>
<ellipse cx="39.1558" cy="33.7519" rx="1.30519" ry="1.29538" fill="#0C092A"/>
<path d="M24.7182 30.9794C25.5699 29.7901 27.9046 29.1232 29.9157 29.6134C30.149 29.6702 30.3847 29.5286 30.442 29.297C30.4993 29.0654 30.3566 28.8316 30.1232 28.7747C27.7876 28.2055 25.0841 28.9777 24.009 30.4792C23.8698 30.6735 23.9157 30.9431 24.1116 31.0813C24.3074 31.2194 24.579 31.1738 24.7182 30.9794Z" fill="#0C092A"/>
<path d="M42.2818 30.9794C41.4302 29.7901 39.0954 29.1232 37.0843 29.6134C36.851 29.6702 36.6154 29.5286 36.5581 29.297C36.5007 29.0654 36.6435 28.8316 36.8768 28.7747C39.2124 28.2055 41.9159 28.9777 42.991 30.4792C43.1302 30.6735 43.0843 30.9431 42.8884 31.0813C42.6926 31.2194 42.421 31.1738 42.2818 30.9794Z" fill="#0C092A"/>
<mask id="mask3_23_1592" style="mask-type:luminance" maskUnits="userSpaceOnUse" x="4" y="9" width="59" height="62">
<rect x="4.78571" y="9.57141" width="57.4286" height="60.4511" fill="white"/>
</mask>
<g mask="url(#mask3_23_1592)">
<path fill-rule="evenodd" clip-rule="evenodd" d="M13.2695 40.8765C13.1353 34.2191 19.4298 20.322 21.7533 17.5596C23.4768 15.5105 28.213 13.7923 33.5001 13.8894C38.7872 13.9864 43.694 15.1442 45.4644 17.3437C48.1452 20.6745 53.702 33.3371 53.7306 40.8765C53.7509 46.2307 51.6559 51.5979 48.7274 51.8872C47.0739 52.0506 44.9735 51.8385 42.4498 51.5837H42.4497H42.4497H42.4497L42.4496 51.5837C41.2946 51.4671 40.0509 51.3416 38.7208 51.2389V48.5559C42.8364 46.6008 45.6818 42.4059 45.6818 37.5464V31.4987C43.3959 30.2488 41.4499 28.7398 39.8286 27.2066C40.5586 28.5539 41.3934 29.7772 42.3348 30.7019C35.682 28.8493 31.0831 25.0556 28.327 22.0812C27.06 24.4731 24.7907 27.9713 21.3182 30.636V37.5464C21.3182 42.4059 24.1636 46.6008 28.2792 48.5559V51.4005C26.7668 51.606 25.3611 51.8668 24.0676 52.1067L24.0675 52.1067L24.0674 52.1067L24.0674 52.1068C21.7074 52.5445 19.7205 52.9131 18.1389 52.7509C15.0449 52.4336 13.3775 46.2298 13.2695 40.8765Z" fill="#E6E6E6"/>
<mask id="mask4_23_1592" style="mask-type:luminance" maskUnits="userSpaceOnUse" x="13" y="13" width="41" height="40">
<path fill-rule="evenodd" clip-rule="evenodd" d="M13.2695 40.8765C13.1353 34.2191 19.4298 20.322 21.7533 17.5596C23.4768 15.5105 28.213 13.7923 33.5001 13.8894C38.7872 13.9864 43.694 15.1442 45.4644 17.3437C48.1452 20.6745 53.702 33.3371 53.7306 40.8765C53.7509 46.2307 51.6559 51.5979 48.7274 51.8872C47.0739 52.0506 44.9735 51.8385 42.4498 51.5837H42.4497H42.4497H42.4497L42.4496 51.5837C41.2946 51.4671 40.0509 51.3416 38.7208 51.2389V48.5559C42.8364 46.6008 45.6818 42.4059 45.6818 37.5464V31.4987C43.3959 30.2488 41.4499 28.7398 39.8286 27.2066C40.5586 28.5539 41.3934 29.7772 42.3348 30.7019C35.682 28.8493 31.0831 25.0556 28.327 22.0812C27.06 24.4731 24.7907 27.9713 21.3182 30.636V37.5464C21.3182 42.4059 24.1636 46.6008 28.2792 48.5559V51.4005C26.7668 51.606 25.3611 51.8668 24.0676 52.1067L24.0675 52.1067L24.0674 52.1067L24.0674 52.1068C21.7074 52.5445 19.7205 52.9131 18.1389 52.7509C15.0449 52.4336 13.3775 46.2298 13.2695 40.8765Z" fill="white"/>
</mask>
<g mask="url(#mask4_23_1592)">
<rect x="4.56818" y="9.57141" width="57.8636" height="60.4511" fill="#0C092A"/>
</g>
</g>
</g>
</svg>
