<svg width="12" height="14" viewBox="0 0 12 14" fill="none" xmlns="http://www.w3.org/2000/svg">
<path fill-rule="evenodd" clip-rule="evenodd" d="M4.00008 3.66665C4.00008 3.13621 4.21079 2.62751 4.58587 2.25243C4.96094 1.87736 5.46965 1.66665 6.00008 1.66665C6.53051 1.66665 7.03922 1.87736 7.4143 2.25243C7.78937 2.62751 8.00008 3.13621 8.00008 3.66665V4.99998H4.00008V3.66665ZM2.66675 4.99998V3.66665C2.66675 2.78259 3.01794 1.93474 3.64306 1.30962C4.26818 0.684502 5.11603 0.333313 6.00008 0.333313C6.88414 0.333313 7.73198 0.684502 8.3571 1.30962C8.98223 1.93474 9.33342 2.78259 9.33342 3.66665V4.99998H10.6667C10.8436 4.99998 11.0131 5.07022 11.1382 5.19524C11.2632 5.32027 11.3334 5.48983 11.3334 5.66665V11.6666C11.3334 12.1971 11.1227 12.7058 10.7476 13.0809C10.3726 13.4559 9.86385 13.6666 9.33342 13.6666H2.66675C2.13632 13.6666 1.62761 13.4559 1.25253 13.0809C0.877462 12.7058 0.666748 12.1971 0.666748 11.6666V5.66665C0.666748 5.48983 0.736986 5.32027 0.86201 5.19524C0.987035 5.07022 1.1566 4.99998 1.33341 4.99998H2.66675ZM6.66675 9.33331C6.66675 9.0681 6.7721 8.81374 6.95964 8.62621C7.14718 8.43867 7.40153 8.33331 7.66675 8.33331H7.67342C7.93863 8.33331 8.19299 8.43867 8.38052 8.62621C8.56806 8.81374 8.67342 9.0681 8.67342 9.33331V9.33998C8.67342 9.6052 8.56806 9.85955 8.38052 10.0471C8.19299 10.2346 7.93863 10.34 7.67342 10.34H7.66675C7.40153 10.34 7.14718 10.2346 6.95964 10.0471C6.7721 9.85955 6.66675 9.6052 6.66675 9.33998V9.33331Z" fill="black"/>
</svg>
