<svg width="40" height="41" viewBox="0 0 40 41" fill="none" xmlns="http://www.w3.org/2000/svg">
<path d="M17.9929 2.11394C19.2341 1.39393 20.7659 1.39393 22.0071 2.11394L28.65 5.96741L35.3087 9.79359C36.5528 10.5085 37.3187 11.8351 37.3158 13.27L37.3 20.9496L37.3158 28.6293C37.3187 30.0642 36.5528 31.3908 35.3087 32.1057L28.65 35.9319L22.0071 39.7854C20.7659 40.5054 19.2341 40.5054 17.9929 39.7854L11.35 35.9319L4.69135 32.1057C3.4472 31.3908 2.68131 30.0642 2.68425 28.6293L2.7 20.9496L2.68425 13.27C2.68131 11.8351 3.4472 10.5085 4.69135 9.79359L11.35 5.96741L17.9929 2.11394Z" fill="#E31D1C"/>
<g clip-path="url(#clip0_5_783)">
<path d="M20 15.9496L23.3333 20.9496L27.5 17.6163L25.8333 25.9496H14.1667L12.5 17.6163L16.6667 20.9496L20 15.9496Z" fill="white" stroke="white" stroke-width="1.5" stroke-linecap="round" stroke-linejoin="round"/>
</g>
<defs>
<clipPath id="clip0_5_783">
<rect width="20" height="20" fill="white" transform="translate(10 10.9496)"/>
</clipPath>
</defs>
</svg>
