<svg width="45" height="40" viewBox="0 0 45 40" fill="none" xmlns="http://www.w3.org/2000/svg">
<path d="M20.3487 0.968109C21.5093 0.361613 22.8932 0.361613 24.0538 0.968109L31.8033 5.01776L39.2614 8.87841C40.5919 9.56713 41.426 10.9416 41.4226 12.4398L41.4053 20L41.4226 27.5602C41.426 29.0584 40.5919 30.4329 39.2614 31.1216L31.8033 34.9822L24.0538 39.0319C22.8932 39.6384 21.5093 39.6384 20.3487 39.0319L12.5992 34.9822L5.14112 31.1216C3.81063 30.4329 2.97655 29.0584 2.97996 27.5602L2.99717 20L2.97996 12.4398C2.97655 10.9416 3.81063 9.56713 5.14112 8.87841L12.5992 5.01776L20.3487 0.968109Z" fill="#FFD54B"/>
<g clip-path="url(#clip0_36_1021)">
<path d="M22.2013 15L25.9015 20L30.5267 16.6667L28.6766 25H15.7259L13.8758 16.6667L18.5011 20L22.2013 15Z" fill="white" stroke="white" stroke-width="1.5" stroke-linecap="round" stroke-linejoin="round"/>
</g>
<defs>
<clipPath id="clip0_36_1021">
<rect width="22.2013" height="20" fill="white" transform="translate(11.1006 10)"/>
</clipPath>
</defs>
</svg>
