<svg width="16" height="16" viewBox="0 0 16 16" fill="none" xmlns="http://www.w3.org/2000/svg">
<path d="M15.0589 9.9551e-05C15.2792 3.71368e-05 15.4925 0.0656456 15.6617 0.185499C15.8309 0.305352 15.9453 0.471855 15.9849 0.656014L16 0.799996V15.1981C16.0004 15.398 15.9128 15.5908 15.7544 15.7385C15.5959 15.8862 15.3782 15.9782 15.144 15.9962C14.9097 16.0143 14.6761 15.9572 14.4889 15.8361C14.3018 15.715 14.1748 15.5388 14.1329 15.3421L14.1178 15.1981V0.799996C14.1178 0.58785 14.217 0.384393 14.3935 0.234384C14.57 0.0843742 14.8093 9.9551e-05 15.0589 9.9551e-05ZM0.276476 0.233669C0.432423 0.101406 0.638021 0.0198376 0.857449 0.00317456C1.07688 -0.0134885 1.29623 0.0358103 1.47729 0.142481L1.60904 0.233669L10.0787 7.43273C10.2343 7.56529 10.3303 7.74004 10.3499 7.92655C10.3695 8.11306 10.3115 8.2995 10.186 8.4534L10.0787 8.56539L1.60904 15.7644C1.44306 15.9062 1.22064 15.9899 0.985628 15.9991C0.750615 16.0084 0.52005 15.9425 0.339373 15.8144C0.158695 15.6863 0.0410104 15.5054 0.00951061 15.3072C-0.0219892 15.109 0.0349813 14.908 0.169194 14.7438L0.276476 14.6318L8.08177 7.99906L0.276476 1.36632C0.188837 1.29202 0.119305 1.20375 0.0718622 1.10657C0.0244198 1.00939 0 0.90521 0 0.799996C0 0.694782 0.0244198 0.590601 0.0718622 0.493421C0.119305 0.396242 0.188837 0.307972 0.276476 0.233669Z" fill="black"/>
</svg>
