<svg width="32" height="32" viewBox="0 0 32 32" fill="none" xmlns="http://www.w3.org/2000/svg">
<circle cx="16" cy="16" r="16" fill="#D38200"/>
<path d="M18.2645 11.9375H18.2708M20.6395 11.9375H20.6458M23.4167 11.7657C23.4167 13.8573 21.6441 15.553 19.4583 15.553C19.2008 15.553 18.9456 15.5293 18.6928 15.4818C18.5107 15.4477 18.4197 15.4311 18.3563 15.4406C18.293 15.4501 18.2028 15.4976 18.0238 15.5934C17.5116 15.8664 16.9221 15.9582 16.3511 15.8539C16.5693 15.5842 16.7173 15.2646 16.7817 14.9237C16.8213 14.7139 16.7231 14.5104 16.5759 14.3616C15.8889 13.6721 15.5022 12.739 15.5 11.7657C15.5 9.67491 17.2726 7.97916 19.4583 7.97916C21.6441 7.97916 23.4167 9.67491 23.4167 11.7657ZM11.9391 23.0208H9.7351C9.47939 23.0208 9.2221 22.9844 8.98697 22.8839C8.22222 22.5553 7.83351 22.1207 7.65301 21.8492C7.60403 21.7739 7.57996 21.6852 7.58422 21.5955C7.58849 21.5059 7.62086 21.4198 7.67676 21.3496C8.56343 20.1716 10.6218 19.4607 11.9431 19.4607C13.2636 19.4607 15.3187 20.1716 16.2054 21.3496C16.317 21.4977 16.3321 21.6948 16.2291 21.8492C16.0478 22.1207 15.6591 22.5553 14.8944 22.8839C14.6568 22.9795 14.4023 23.0261 14.1463 23.0208H11.9391ZM14.1431 15.3329C14.1427 15.6215 14.0854 15.9072 13.9746 16.1737C13.8638 16.4402 13.7015 16.6822 13.4972 16.886C13.2928 17.0898 13.0503 17.2513 12.7835 17.3614C12.5167 17.4714 12.2309 17.5279 11.9423 17.5274C11.3597 17.5279 10.8008 17.2969 10.3884 16.8854C9.97598 16.4739 9.74385 15.9155 9.74301 15.3329C9.74333 15.0443 9.80048 14.7586 9.91121 14.4921C10.0219 14.2256 10.1841 13.9835 10.3884 13.7797C10.5927 13.5758 10.8351 13.4142 11.1019 13.304C11.3686 13.1939 11.6545 13.1373 11.9431 13.1377C12.2317 13.1373 12.5175 13.1939 12.7842 13.304C13.051 13.4142 13.2934 13.5758 13.4977 13.7797C13.702 13.9835 13.8642 14.2256 13.9749 14.4921C14.0856 14.7586 14.1428 15.0443 14.1431 15.3329Z" stroke="white" stroke-linecap="round" stroke-linejoin="round"/>
</svg>
