<svg width="32" height="32" viewBox="0 0 32 32" fill="none" xmlns="http://www.w3.org/2000/svg">
<circle cx="16" cy="16" r="16" fill="#FFD54B"/>
<path d="M19.75 22.9875L18.1312 21.3687L17.25 22.25L19.75 24.75L24.75 19.75L23.8688 18.8687L19.75 22.9875Z" fill="white"/>
<path d="M21.625 9.125H19.75V8.5C19.749 8.16878 19.617 7.85142 19.3828 7.61721C19.1486 7.383 18.8312 7.25099 18.5 7.25H13.5C13.1688 7.25099 12.8514 7.383 12.6172 7.61721C12.383 7.85142 12.251 8.16878 12.25 8.5V9.125H10.375C10.0438 9.12599 9.72642 9.258 9.49221 9.49221C9.258 9.72642 9.12599 10.0438 9.125 10.375V23.5C9.12599 23.8312 9.258 24.1486 9.49221 24.3828C9.72642 24.617 10.0438 24.749 10.375 24.75H16V23.5H10.375V10.375H12.25V12.25H19.75V10.375H21.625V17.25H22.875V10.375C22.874 10.0438 22.742 9.72642 22.5078 9.49221C22.2736 9.258 21.9562 9.12599 21.625 9.125ZM18.5 11H13.5V8.5H18.5V11Z" fill="white"/>
</svg>
